<svg id="visual" viewBox="0 0 960 300" width="960" height="300" xmlns="http://www.w3.org/2000/svg" xmlns:xlink="http://www.w3.org/1999/xlink" version="1.1"><rect x="0" y="0" width="960" height="300" fill="#001220"></rect><path d="M0 120L22.8 113.8C45.7 107.7 91.3 95.3 137 90.3C182.7 85.3 228.3 87.7 274 94.2C319.7 100.7 365.3 111.3 411.2 110.7C457 110 503 98 548.8 98C594.7 98 640.3 110 686 113.3C731.7 116.7 777.3 111.3 823 109.8C868.7 108.3 914.3 110.7 937.2 111.8L960 113L960 0L937.2 0C914.3 0 868.7 0 823 0C777.3 0 731.7 0 686 0C640.3 0 594.7 0 548.8 0C503 0 457 0 411.2 0C365.3 0 319.7 0 274 0C228.3 0 182.7 0 137 0C91.3 0 45.7 0 22.8 0L0 0Z" fill="#69fab4"></path><path d="M0 98L22.8 95.3C45.7 92.7 91.3 87.3 137 83.3C182.7 79.3 228.3 76.7 274 74.8C319.7 73 365.3 72 411.2 73.8C457 75.7 503 80.3 548.8 81.2C594.7 82 640.3 79 686 78.3C731.7 77.7 777.3 79.3 823 80.7C868.7 82 914.3 83 937.2 83.5L960 84L960 0L937.2 0C914.3 0 868.7 0 823 0C777.3 0 731.7 0 686 0C640.3 0 594.7 0 548.8 0C503 0 457 0 411.2 0C365.3 0 319.7 0 274 0C228.3 0 182.7 0 137 0C91.3 0 45.7 0 22.8 0L0 0Z" fill="#00e3d0"></path><path d="M0 67L22.8 65.8C45.7 64.7 91.3 62.3 137 60.7C182.7 59 228.3 58 274 56.8C319.7 55.7 365.3 54.3 411.2 57.5C457 60.7 503 68.3 548.8 70.7C594.7 73 640.3 70 686 69.7C731.7 69.3 777.3 71.7 823 73.5C868.7 75.3 914.3 76.7 937.2 77.3L960 78L960 0L937.2 0C914.3 0 868.7 0 823 0C777.3 0 731.7 0 686 0C640.3 0 594.7 0 548.8 0C503 0 457 0 411.2 0C365.3 0 319.7 0 274 0C228.3 0 182.7 0 137 0C91.3 0 45.7 0 22.8 0L0 0Z" fill="#00c8da"></path><path d="M0 33L22.8 36.2C45.7 39.3 91.3 45.7 137 45.3C182.7 45 228.3 38 274 34C319.7 30 365.3 29 411.2 31C457 33 503 38 548.8 39.8C594.7 41.7 640.3 40.3 686 42C731.7 43.7 777.3 48.3 823 51C868.7 53.7 914.3 54.3 937.2 54.7L960 55L960 0L937.2 0C914.3 0 868.7 0 823 0C777.3 0 731.7 0 686 0C640.3 0 594.7 0 548.8 0C503 0 457 0 411.2 0C365.3 0 319.7 0 274 0C228.3 0 182.7 0 137 0C91.3 0 45.7 0 22.8 0L0 0Z" fill="#00abd6"></path><path d="M0 17L22.8 18.3C45.7 19.7 91.3 22.3 137 24.5C182.7 26.7 228.3 28.3 274 26.5C319.7 24.7 365.3 19.3 411.2 19.8C457 20.3 503 26.7 548.8 27.5C594.7 28.3 640.3 23.7 686 21.7C731.7 19.7 777.3 20.3 823 20C868.7 19.7 914.3 18.3 937.2 17.7L960 17L960 0L937.2 0C914.3 0 868.7 0 823 0C777.3 0 731.7 0 686 0C640.3 0 594.7 0 548.8 0C503 0 457 0 411.2 0C365.3 0 319.7 0 274 0C228.3 0 182.7 0 137 0C91.3 0 45.7 0 22.8 0L0 0Z" fill="#248cc7"></path></svg>